<?xml version="1.0" standalone="no"?>
<!DOCTYPE svg PUBLIC "-//W3C//DTD SVG 20010904//EN"
 "http://www.w3.org/TR/2001/REC-SVG-20010904/DTD/svg10.dtd">
<svg version="1.0" xmlns="http://www.w3.org/2000/svg"
 width="676.000000pt" height="676.000000pt" viewBox="0 0 676.000000 676.000000"
 preserveAspectRatio="xMidYMid meet">
<metadata>
Created by potrace 1.11, written by Peter Selinger 2001-2013
</metadata>
<g transform="translate(0.000000,676.000000) scale(0.100000,-0.100000)"
fill="#000000" stroke="none">
<path d="M3310 6080 c-158 -43 -1149 -330 -1175 -340 -17 -6 -32 -11 -35 -11
-8 1 -79 -18 -145 -38 -33 -11 -105 -31 -160 -46 -55 -15 -111 -31 -125 -36
-14 -5 -34 -11 -45 -14 -22 -4 -702 -199 -750 -214 -16 -5 -190 -55 -385 -111
-195 -56 -385 -111 -422 -122 l-68 -20 0 -2234 0 -2234 3380 0 3380 0 0 2235
0 2234 -52 15 c-96 28 -356 103 -943 271 -319 92 -593 171 -610 176 -67 18
-771 220 -995 285 -85 25 -177 52 -205 59 -27 8 -106 30 -175 50 -260 76 -399
115 -402 114 -2 0 -32 -9 -68 -19z"/>
</g>
</svg>
